<svg xmlns="http://www.w3.org/2000/svg" viewBox="0 0 96 96" fill="none">
  <defs>
    <linearGradient id="leaf" x1="14" x2="71" y1="14" y2="82" gradientUnits="userSpaceOnUse">
      <stop stop-color="#39A231" />
      <stop offset="1" stop-color="#0F6C24" />
    </linearGradient>
    <linearGradient id="stem" x1="59" x2="59" y1="10" y2="86" gradientUnits="userSpaceOnUse">
      <stop stop-color="#259D35" />
      <stop offset="1" stop-color="#0B4F18" />
    </linearGradient>
  </defs>
  <path d="M17 60c0-19 10-35 30-47-10 10-15 21-15 34 0 11 4 20 13 28 8 7 18 11 29 11-8 5-17 7-26 7-19 0-31-12-31-33Z" fill="url(#leaf)" />
  <path d="M47 10h28c6 0 10 6 8 11l-3 7c-2 4-6 7-11 7H56v12h16c6 0 10 6 8 11l-2 5c-2 5-7 8-12 8H56v15H47c-6 0-11-5-11-11V22c0-7 5-12 11-12Z" fill="url(#stem)" />
  <path d="m63 49 14-10 13 9 7 14H85V52H66v10H55l8-13Z" fill="#1F2A36" />
  <path d="M38 71c8-6 19-10 33-12-7 3-12 6-17 10 8 1 15 3 22 6-12 1-25 1-38-4Z" fill="#14842A" />
</svg>
